<svg width="1200" height="780" viewBox="0 0 1200 780" xmlns="http://www.w3.org/2000/svg">
  <image href="../../images/insight-pakistan-editorial.svg" width="1200" height="780" preserveAspectRatio="xMidYMid slice"/>
</svg><svg xmlns="http://www.w3.org/2000/svg" viewBox="0 0 1200 760">
  <defs>
    <linearGradient id="bg" x1="0" y1="0" x2="1" y2="1">
      <stop offset="0%" stop-color="#0d1827"/>
      <stop offset="100%" stop-color="#233850"/>
    </linearGradient>
  </defs>
  <rect width="1200" height="760" fill="url(#bg)"/>
  <circle cx="920" cy="130" r="210" fill="rgba(200,169,110,0.14)"/>
  <circle cx="200" cy="650" r="220" fill="rgba(74,158,255,0.14)"/>
  <path d="M114 430c120-118 266-188 432-222 104-22 208-26 320-18 76 6 154 20 222 40" stroke="rgba(126,183,255,0.35)" stroke-width="3" fill="none" stroke-dasharray="10 12"/>
  <rect x="110" y="120" width="448" height="500" rx="28" fill="rgba(7,17,29,0.64)" stroke="rgba(126,183,255,0.12)"/>
  <rect x="170" y="198" width="210" height="14" rx="7" fill="rgba(255,255,255,0.70)"/>
  <rect x="170" y="242" width="286" height="10" rx="5" fill="rgba(255,255,255,0.24)"/>
  <rect x="170" y="276" width="244" height="10" rx="5" fill="rgba(255,255,255,0.18)"/>
  <rect x="664" y="164" width="384" height="212" rx="26" fill="rgba(246,241,233,0.92)"/>
  <rect x="712" y="216" width="140" height="12" rx="6" fill="#12233a"/>
  <rect x="712" y="250" width="224" height="9" rx="4.5" fill="#526476" opacity="0.46"/>
  <path d="M712 516l110-72 92 34 88-112" stroke="#d7b37a" stroke-width="10" fill="none" stroke-linecap="round" stroke-linejoin="round"/>
  <circle cx="822" cy="444" r="12" fill="#7eb7ff"/>
  <circle cx="914" cy="478" r="12" fill="#f09062"/>
  <circle cx="1002" cy="366" r="12" fill="#d7b37a"/>
  <path d="M714 342c46-34 94-58 148-72 48-12 104-18 170-12" stroke="rgba(18,35,58,0.16)" stroke-width="3" fill="none"/>
</svg>