<svg xmlns="http://www.w3.org/2000/svg" viewBox="0 0 1600 900"><defs><linearGradient id="bg" x1="0" y1="0" x2="1" y2="1"><stop offset="0%" stop-color="#06111f"/><stop offset="100%" stop-color="#10233d"/></linearGradient></defs><rect width="1600" height="900" fill="url(#bg)"/><circle cx="1220" cy="180" r="240" fill="rgba(74,158,255,0.12)"/><path d="M120 720h1360" stroke="rgba(139,163,190,0.20)" stroke-width="2"/><path d="M300 635l290-90 180 48 338-130 215 65" stroke="#4a9eff" stroke-width="4" fill="none" opacity="0.76"/><circle cx="300" cy="635" r="16" fill="#c8a96e"/><circle cx="590" cy="545" r="16" fill="#4a9eff"/><circle cx="770" cy="593" r="16" fill="#4a9eff"/><circle cx="1108" cy="463" r="16" fill="#e87a3a"/><circle cx="1323" cy="528" r="16" fill="#3ae88a"/><rect x="220" y="180" width="410" height="230" rx="22" fill="rgba(5,13,26,0.54)" stroke="rgba(74,158,255,0.18)"/><rect x="270" y="242" width="240" height="12" rx="6" fill="rgba(74,158,255,0.48)"/><rect x="270" y="284" width="310" height="10" rx="5" fill="rgba(139,163,190,0.22)"/><rect x="270" y="318" width="278" height="10" rx="5" fill="rgba(139,163,190,0.18)"/><path d="M1080 210l120 46-92 22-82 110-22-58-120-28 58-16 66-98z" fill="rgba(232,238,245,0.70)"/></svg>