<svg xmlns="http://www.w3.org/2000/svg" viewBox="0 0 1600 900"><defs><linearGradient id="bg" x1="0" y1="0" x2="1" y2="1"><stop offset="0%" stop-color="#081423"/><stop offset="100%" stop-color="#0e2040"/></linearGradient></defs><rect width="1600" height="900" fill="url(#bg)"/><rect x="0" y="0" width="1600" height="900" fill="url(#grid)" opacity="0.05"/><defs><pattern id="grid" width="60" height="60" patternUnits="userSpaceOnUse"><path d="M60 0H0V60" fill="none" stroke="#4a9eff" stroke-width="1"/></pattern></defs><circle cx="410" cy="420" r="220" fill="rgba(74,158,255,0.12)"/><circle cx="1030" cy="300" r="160" fill="rgba(200,169,110,0.10)"/><path d="M180 620c110-110 215-165 310-165 135 0 210 88 322 88 112 0 175-54 281-102 104-47 181-58 327-47" stroke="#4a9eff" stroke-width="3" fill="none" opacity="0.75"/><g fill="#4a9eff"><circle cx="310" cy="505" r="10"/><circle cx="570" cy="540" r="10"/><circle cx="860" cy="455" r="10"/><circle cx="1230" cy="405" r="10"/></g><rect x="960" y="510" width="360" height="170" rx="18" fill="rgba(5,13,26,0.60)" stroke="rgba(74,158,255,0.20)"/><rect x="1002" y="560" width="250" height="12" rx="6" fill="rgba(74,158,255,0.44)"/><rect x="1002" y="600" width="210" height="10" rx="5" fill="rgba(139,163,190,0.24)"/><rect x="1002" y="632" width="266" height="10" rx="5" fill="rgba(139,163,190,0.18)"/></svg>