<svg xmlns="http://www.w3.org/2000/svg" viewBox="0 0 1600 900"><defs><linearGradient id="bg" x1="0" y1="0" x2="1" y2="1"><stop offset="0%" stop-color="#050d1a"/><stop offset="100%" stop-color="#0b1e36"/></linearGradient></defs><rect width="1600" height="900" fill="url(#bg)"/><circle cx="1180" cy="220" r="280" fill="rgba(74,158,255,0.16)"/><circle cx="360" cy="720" r="220" fill="rgba(200,169,110,0.10)"/><path d="M80 700c180-140 340-220 510-220 195 0 358 85 610 120 112 15 240 18 320 12" stroke="#4a9eff" stroke-width="2" stroke-dasharray="10 10" fill="none" opacity="0.55"/><rect x="920" y="180" width="430" height="250" rx="18" fill="rgba(5,13,26,0.55)" stroke="rgba(74,158,255,0.22)"/><rect x="960" y="230" width="220" height="12" rx="6" fill="rgba(74,158,255,0.48)"/><rect x="960" y="270" width="310" height="10" rx="5" fill="rgba(139,163,190,0.32)"/><rect x="960" y="305" width="260" height="10" rx="5" fill="rgba(139,163,190,0.24)"/><rect x="960" y="340" width="290" height="10" rx="5" fill="rgba(139,163,190,0.24)"/><circle cx="460" cy="420" r="160" fill="rgba(14,32,64,0.88)" stroke="rgba(200,169,110,0.24)"/><path d="M390 420l40 40 92-108" stroke="#c8a96e" stroke-width="18" fill="none" stroke-linecap="round" stroke-linejoin="round"/></svg>