<svg xmlns="http://www.w3.org/2000/svg" viewBox="0 0 1200 760">
  <defs>
    <linearGradient id="bg" x1="0" y1="0" x2="1" y2="1">
      <stop offset="0%" stop-color="#f7f2ea"/>
      <stop offset="100%" stop-color="#e3d5bf"/>
    </linearGradient>
  </defs>
  <rect width="1200" height="760" fill="url(#bg)"/>
  <circle cx="992" cy="102" r="180" fill="rgba(74,158,255,0.10)"/>
  <rect x="126" y="126" width="948" height="508" rx="30" fill="#faf7f2" stroke="rgba(13,27,45,0.08)"/>
  <rect x="182" y="182" width="386" height="398" rx="24" fill="#0f1f33"/>
  <rect x="238" y="238" width="160" height="14" rx="7" fill="rgba(255,255,255,0.64)"/>
  <rect x="238" y="276" width="264" height="10" rx="5" fill="rgba(255,255,255,0.22)"/>
  <path d="M240 482l108-62 100 38 76-88" stroke="#7eb7ff" stroke-width="8" fill="none" stroke-linecap="round"/>
  <circle cx="348" cy="420" r="12" fill="#d7b37a"/>
  <circle cx="448" cy="458" r="12" fill="#7eb7ff"/>
  <rect x="626" y="182" width="392" height="176" rx="24" fill="#f0e8dc"/>
  <path d="M700 256l142 52-112 26-92 128-22-66-138-34 70-18 78-110z" fill="#12243b" opacity="0.92"/>
  <rect x="626" y="396" width="392" height="184" rx="24" fill="#ffffff"/>
  <rect x="680" y="446" width="180" height="12" rx="6" fill="#12233a"/>
  <rect x="680" y="480" width="246" height="9" rx="4.5" fill="#607285" opacity="0.40"/>
  <rect x="680" y="512" width="212" height="9" rx="4.5" fill="#607285" opacity="0.24"/>
</svg>