<svg xmlns="http://www.w3.org/2000/svg" viewBox="0 0 800 1000" role="img" aria-labelledby="title desc">
  <title id="title">Head of Executive Protection portrait illustration</title>
  <desc id="desc">Abstract portrait illustration in Securide24 brand colors.</desc>
  <defs>
    <linearGradient id="bg" x1="0" y1="0" x2="1" y2="1">
      <stop offset="0%" stop-color="#091628"/>
      <stop offset="100%" stop-color="#050d1a"/>
    </linearGradient>
    <linearGradient id="jacket" x1="0" y1="0" x2="0" y2="1">
      <stop offset="0%" stop-color="#172e4b"/>
      <stop offset="100%" stop-color="#0a1525"/>
    </linearGradient>
  </defs>
  <rect width="800" height="1000" fill="url(#bg)"/>
  <path d="M0 180h800" stroke="#4a9eff" stroke-opacity="0.08"/>
  <path d="M0 220h800" stroke="#4a9eff" stroke-opacity="0.05"/>
  <circle cx="170" cy="200" r="160" fill="rgba(74,158,255,0.08)"/>
  <path d="M210 875c20-126 98-234 190-234s170 108 190 234" fill="url(#jacket)"/>
  <ellipse cx="400" cy="360" rx="112" ry="145" fill="#d2ab86"/>
  <path d="M295 370c-3-116 57-188 132-188 66 0 132 63 130 191-27-15-64-39-115-39-45 0-96 20-147 36z" fill="#171c24"/>
  <path d="M338 600c18 30 37 49 62 49 30 0 53-18 72-48l-16-53H352z" fill="#c19671"/>
  <path d="M316 622l82 74 86-74 43 253H275z" fill="#ecf0f5"/>
  <path d="M292 390c39 23 77 31 120 31 57 0 103-28 142-69-8 74-61 130-132 130-67 0-118-39-130-92z" fill="#d2ab86"/>
  <path d="M276 856h248" stroke="#c8a96e" stroke-opacity="0.45"/>
</svg>