<svg width="1600" height="900" viewBox="0 0 1600 900" xmlns="http://www.w3.org/2000/svg">
  <image href="../../images/hero-slide-monitoring.svg" width="1600" height="900" preserveAspectRatio="xMidYMid slice"/>
</svg><svg xmlns="http://www.w3.org/2000/svg" viewBox="0 0 1600 900"><defs><linearGradient id="bg" x1="0" y1="0" x2="1" y2="1"><stop offset="0%" stop-color="#081422"/><stop offset="100%" stop-color="#091628"/></linearGradient></defs><rect width="1600" height="900" fill="url(#bg)"/><circle cx="280" cy="180" r="220" fill="rgba(74,158,255,0.09)"/><circle cx="1260" cy="760" r="260" fill="rgba(200,169,110,0.07)"/><rect x="160" y="160" width="1280" height="560" rx="26" fill="rgba(11,30,54,0.78)" stroke="rgba(74,158,255,0.16)"/><path d="M260 612h1080" stroke="rgba(139,163,190,0.15)"/><path d="M320 310h300l80 90 90-40 100 80 180-150 150 40" stroke="#4a9eff" stroke-width="4" fill="none"/><g fill="#4a9eff"><circle cx="400" cy="310" r="10"/><circle cx="700" cy="400" r="10"/><circle cx="970" cy="440" r="10"/><circle cx="1220" cy="330" r="10"/></g><rect x="1010" y="470" width="250" height="90" rx="16" fill="rgba(5,13,26,0.65)" stroke="rgba(74,158,255,0.20)"/><rect x="1040" y="500" width="145" height="10" rx="5" fill="rgba(74,158,255,0.46)"/><rect x="1040" y="528" width="178" height="8" rx="4" fill="rgba(139,163,190,0.22)"/></svg>