<svg width="1200" height="900" viewBox="0 0 1200 900" fill="none" xmlns="http://www.w3.org/2000/svg">
  <rect width="1200" height="900" rx="32" fill="#EEF1EC"/>
  <rect x="52" y="52" width="1096" height="796" rx="28" fill="#F8FAF5" stroke="#D9DFD4"/>
  <rect x="104" y="116" width="272" height="208" rx="24" fill="#132233"/>
  <text x="138" y="178" fill="#F6F8F3" font-family="JetBrains Mono, monospace" font-size="16" letter-spacing="1.8">GOVERNANCE</text>
  <text x="138" y="232" fill="#F6F8F3" font-family="Cormorant Garamond, serif" font-size="64">Controlled</text>
  <text x="138" y="290" fill="#F6F8F3" font-family="Cormorant Garamond, serif" font-size="64">Delivery</text>
  <g>
    <rect x="420" y="116" width="288" height="154" rx="24" fill="#FFFFFF" stroke="#D9DFD4"/>
    <text x="452" y="164" fill="#6D7C86" font-family="JetBrains Mono, monospace" font-size="14" letter-spacing="1.6">ASSURANCE</text>
    <text x="452" y="214" fill="#16283C" font-family="Cormorant Garamond, serif" font-size="44">ISO-aligned</text>
    <text x="452" y="246" fill="#51606D" font-family="DM Sans, sans-serif" font-size="20">Operational controls with structured oversight.</text>
  </g>
  <g>
    <rect x="744" y="116" width="288" height="154" rx="24" fill="#FFFFFF" stroke="#D9DFD4"/>
    <text x="776" y="164" fill="#6D7C86" font-family="JetBrains Mono, monospace" font-size="14" letter-spacing="1.6">CONDUCT</text>
    <text x="776" y="214" fill="#16283C" font-family="Cormorant Garamond, serif" font-size="44">Discreet</text>
    <text x="776" y="246" fill="#51606D" font-family="DM Sans, sans-serif" font-size="20">Client information handled under strict confidence.</text>
  </g>
  <g>
    <rect x="104" y="366" width="928" height="114" rx="28" fill="#132233"/>
    <circle cx="170" cy="423" r="18" fill="#67D390"/>
    <text x="212" y="402" fill="#F6F8F3" font-family="JetBrains Mono, monospace" font-size="14" letter-spacing="1.6">UK-GOVERNED FRAMEWORK</text>
    <text x="212" y="446" fill="#F6F8F3" font-family="Cormorant Garamond, serif" font-size="50">Standards, discretion, and continuity under one operating discipline.</text>
  </g>
  <g fill="#FFFFFF" stroke="#D9DFD4">
    <rect x="104" y="528" width="220" height="124" rx="22"/>
    <rect x="348" y="528" width="220" height="124" rx="22"/>
    <rect x="592" y="528" width="220" height="124" rx="22"/>
    <rect x="836" y="528" width="196" height="124" rx="22"/>
  </g>
  <g fill="#16283C" font-family="Cormorant Garamond, serif" font-size="42">
    <text x="136" y="597">ISO 9001</text>
    <text x="380" y="597">ISO 31030</text>
    <text x="624" y="597">ISO 27001</text>
    <text x="870" y="597">ISO 45001</text>
  </g>
  <g fill="#687883" font-family="JetBrains Mono, monospace" font-size="14" letter-spacing="1.2">
    <text x="136" y="625">QUALITY</text>
    <text x="380" y="625">TRAVEL RISK</text>
    <text x="624" y="625">INFOSEC</text>
    <text x="870" y="625">DUTY OF CARE</text>
  </g>
</svg>